<?xml version="1.0" encoding="UTF-8" standalone="no"?>
<svg
   enable-background="new 0 0 141.7 141.7"
   viewBox="17.9 46.9 105.84 47.93"
   version="1.1"
   id="svg5"
   sodipodi:docname="e9ed313dde26d91b.svg"
   inkscape:version="1.4 (86a8ad7, 2024-10-11)"
   xmlns:inkscape="http://www.inkscape.org/namespaces/inkscape"
   xmlns:sodipodi="http://sodipodi.sourceforge.net/DTD/sodipodi-0.dtd"
   xmlns="http://www.w3.org/2000/svg"
   xmlns:svg="http://www.w3.org/2000/svg">
  <defs
     id="defs5" />
  <sodipodi:namedview
     id="namedview5"
     pagecolor="#ffffff"
     bordercolor="#000000"
     borderopacity="0.25"
     inkscape:showpageshadow="2"
     inkscape:pageopacity="0.0"
     inkscape:pagecheckerboard="0"
     inkscape:deskcolor="#d1d1d1"
     inkscape:zoom="11.865284"
     inkscape:cx="52.04258"
     inkscape:cy="21.954805"
     inkscape:window-width="1920"
     inkscape:window-height="1027"
     inkscape:window-x="1912"
     inkscape:window-y="-8"
     inkscape:window-maximized="1"
     inkscape:current-layer="svg5" />
  <g
     fill="#614efa"
     id="g5"
     style="fill:#7289da;fill-opacity:1">
    <path
       d="m66.3 84.4h6.4c.3 0 .6-.2.6-.6v-24.5c0-.3-.2-.6-.6-.6h-6.4c-.3 0-.6.2-.6.6v24.5c0 .4.3.6.6.6z"
       id="path1"
       style="fill:#7289da;fill-opacity:1" />
    <path
       d="m29.9 71.4 12-12c.2-.2.1-.6-.2-.6h-9.7c-.1 0-.2 0-.2.1l-6.3 6.3v-16.4c0-.2-.2-.4-.5-.3l-6.9 2.8c-.1.1-.2.2-.2.3v32.4c0 .3.2.6.6.6h6.5c.3 0 .6-.2.6-.6v-6.3l6.7 6.7c.1.1.1.1.2.1h9.7c.3 0 .4-.4.2-.6z"
       id="path2"
       style="fill:#7289da;fill-opacity:1" />
    <path
       d="m123.7 70.7c-.4-6.3-5.6-11.4-11.9-11.9-7.5-.5-13.7 5.4-13.7 12.8v22.9c0 .2.2.4.5.3l6.7-2.7c.2-.1.3-.3.3-.5v-8.3c1.6.7 3.4 1.1 5.3 1.1 7.4 0 13.4-6.2 12.8-13.7zm-12.7 6.2c-2.9 0-5.3-2.4-5.3-5.3s2.4-5.3 5.3-5.3 5.3 2.4 5.3 5.3-2.4 5.3-5.3 5.3z"
       id="path3"
       style="fill:#7289da;fill-opacity:1" />
    <path
       d="m86 65c1.3 0 2.4.7 3.3 2 .1.2.4.3.6.2l5.2-2.1c.3-.1.4-.4.3-.7-1.3-3.1-5.3-5.5-9.5-5.5-5.5 0-9.9 3.5-9.9 7.8 0 2.3 1.3 4.3 3.2 5.6 1.7 1.2 3.6 1.9 5.6 2.4h.2c2.6.6 3 1.3 3 2 0 .9-1.1 1.6-2.4 1.6-1.4 0-2.6-.9-3.6-2.3-.1-.2-.4-.3-.7-.2l-5.1 2.1c-.2.1-.3.4-.2.7 1.5 4 5.4 5.8 9.6 5.8 5.5 0 9.9-3.5 9.9-7.8 0-.9-.2-1.8-.6-2.7-.4-.8-1.3-2.5-3.9-3.7-1.4-.7-5.4-1.8-6.8-2.6-.5-.3-.7-.7-.7-1.1.1-.8 1.1-1.5 2.5-1.5z"
       id="path4"
       style="fill:#7289da;fill-opacity:1" />
    <circle
       cx="69.5"
       cy="51.6"
       r="4.7"
       id="circle4"
       style="fill:#7289da;fill-opacity:1" />
    <path
       d="m62.8 58.8c.2 0 .4.2.3.5l-2.8 6.9c-.1.1-.2.2-.3.2h-2c-2.9 0-5.3 2.4-5.3 5.3v12.3c0 .3-.2.5-.5.5h-6.4c-.3 0-.6-.2-.6-.6v-12.3c0-7.1 5.7-12.8 12.8-12.8z"
       id="path5"
       style="fill:#7289da;fill-opacity:1" />
  </g>
</svg>
